<?xml version="1.0" encoding="UTF-8"?>
<svg width="292.98" height="56.74" preserveAspectRatio="xMidYMid" version="1.0" viewBox="0 0 219.73 42.555" xmlns="http://www.w3.org/2000/svg" zoomAndPan="magnify">
<defs>
<clipPath id="c">
<path d="m36.73 41h219.75v10h-219.75z"/>
</clipPath>
<clipPath id="b">
<path d="m145 8.25h10v34.75h-10z"/>
</clipPath>
<clipPath id="a">
<path d="m138 8.25h10v34.75h-10z"/>
</clipPath>
</defs>
<g transform="translate(-36.73 -8.3555)">
<g clip-path="url(#c)">
<path d="m247.42 50.91 9.043-8.957h-219.74l8.6094 8.5312 0.70703-0.70312-6.8945-6.832h214.89l-7.3281 7.2578 0.71093 0.70312" fill="#c3a372"/>
</g>
<g clip-path="url(#b)">
<path d="m146.59 41.379 0.47266 0.47266 7.7812-7.7109v-25.785l-8.9258 8.8438v25.785l1.1445-1.1328-0.47266-0.47266h0.66797v-23.629l6.2461-6.1914v22.031l-7.3906 7.3203 0.47656 0.46875h0.66797-0.66797" fill="#c3a372"/>
</g>
<g clip-path="url(#a)">
<path d="m146.59 41.379 0.47266-0.46875-7.3867-7.3203v-22.031l6.2422 6.1914v23.629h0.67188l0.47266-0.46875-0.47266 0.46875h0.66797v-24.18l-8.9219-8.8438v25.785l8.9219 8.8438v-1.6055h-0.66797" fill="#c3a372"/>
</g>
<path d="m228.45 37.969h-71.793l2.9688-2.9414-0.71094-0.70703-4.6875 4.6445h74.223v-0.99609" fill="#03989e"/>
<path d="m64.781 38.965h74.223l-4.6875-4.6445-0.71094 0.70703 2.9726 2.9414h-71.797v0.99609" fill="#03989e"/>
</g>
</svg>
