<?xml version="1.0" encoding="UTF-8"?>
<svg width="270.55" height="11.859" preserveAspectRatio="xMidYMid" version="1.0" viewBox="0 0 202.91 8.8945" xmlns="http://www.w3.org/2000/svg" zoomAndPan="magnify">
<defs>
<clipPath id="a">
<path d="m138.37 53.68h17.25v9h-17.25z"/>
</clipPath>
</defs>
<g transform="translate(-45.719 -53.68)" clip-path="url(#a)">
<path d="m138.47 54.125c0-0.19922 0.0937-0.33594 0.27734-0.41016 0.18359-0.07813 0.34766-0.04297 0.48828 0.09766l7.7539 7.6875 7.7539-7.6875c0.0898-0.08984 0.19532-0.13672 0.32032-0.13672s0.23437 0.04297 0.32031 0.12891c0.0898 0.08984 0.13281 0.19531 0.13281 0.32031-4e-3 0.125-0.0469 0.23047-0.13672 0.31641l-8.0742 8.0039c-0.0859 0.08594-0.1914 0.12891-0.3164 0.12891-0.1211 0-0.22657-0.04297-0.31641-0.12891l-8.0703-8.0039c-0.0859-0.08594-0.13281-0.19141-0.13281-0.31641z" fill="#ffde59"/>
</g>
<path d="m109.16 0.375h93.754" fill="none" stroke="#ffde59" stroke-width=".75061"/>
<path d="m-3.0924e-6 0.375h93.754" fill="none" stroke="#ffde59" stroke-width=".75061"/>
</svg>
