<?xml version="1.0" encoding="UTF-8"?>
<svg width="1199.9" height="58.639" preserveAspectRatio="xMidYMid" version="1.0" viewBox="0 0 899.92 43.979" xmlns="http://www.w3.org/2000/svg" zoomAndPan="magnify">
<defs>
<clipPath id="b">
<path d="m4.3242 49h2.6758v2.8047h-2.6758z"/>
</clipPath>
<clipPath id="a">
<path d="m130 7.7773h4v2.2227h-4z"/>
</clipPath>
<clipPath id="c">
<path d="m286 49h2.5742v2.8047h-2.5742z"/>
</clipPath>
<clipPath id="d">
<path d="m159 7.7773h4v2.2227h-4z"/>
</clipPath>
</defs>
<path d="m127.61 0.60547h-126.47c-0.21094 0-0.37891 0.16797-0.37891 0.37891v41.832c0 0.21094 0.16797 0.38281 0.37891 0.38281 0.20703 0 0.37891-0.17187 0.37891-0.38281v-41.449h126.09c0.20703 0 0.37891-0.17188 0.37891-0.38281 0-0.21094-0.17188-0.37891-0.37891-0.37891z" fill="#c3a372"/>
<path d="m109.45 6.4375h-102.89v22.102c0 0.21094 0.16797 0.37891 0.37891 0.37891s0.37891-0.16797 0.37891-0.37891v-21.344h102.13c0.20703 0 0.3789-0.16797 0.3789-0.37891s-0.17187-0.37891-0.3789-0.37891z" fill="#c3a372"/>
<path d="m96.559 12.773h-76.996c-0.20703 0-0.37891 0.17188-0.37891 0.38281 0 0.20703 0.17188 0.37891 0.37891 0.37891h76.996c0.21094 0 0.37891-0.17188 0.37891-0.37891 0-0.21094-0.16797-0.38281-0.37891-0.38281z" fill="#c3a372"/>
<path d="m1.1367 0.60547c-0.09375 0-0.19141 0.035157-0.26563 0.10547-0.14844 0.14453-0.15234 0.38672-0.007812 0.53906l19.941 20.789c0.14453 0.15234 0.38281 0.15234 0.53516 0.0078 0.15234-0.14453 0.15625-0.38281 0.01172-0.53516l-19.945-20.789c-0.070313-0.078125-0.17188-0.11719-0.26953-0.11719z" fill="#c3a372"/>
<path d="m6.9414 6.4375c-0.14062 0-0.27344 0.07422-0.33984 0.20703-0.09375 0.19141-0.01563 0.41797 0.17188 0.51172l12.621 6.3398c0.1875 0.09375 0.41406 0.01562 0.50781-0.17188 0.09375-0.1875 0.01563-0.41406-0.16797-0.50781l-12.625-6.3398c-0.05469-0.02734-0.10938-0.03906-0.16797-0.03906z" fill="#c3a372"/>
<path d="m109.18 6.4375c-0.0586 0-0.11328 0.01172-0.16797 0.03906l-12.621 6.3398c-0.1875 0.09375-0.26562 0.32031-0.17187 0.50781 0.0937 0.1875 0.32031 0.26563 0.50781 0.17188l12.621-6.3398c0.1875-0.09375 0.26562-0.32031 0.17187-0.51172-0.0664-0.13281-0.19922-0.20703-0.33984-0.20703z" fill="#c3a372"/>
<path d="m6.9414 6.4375c-0.04297 0-0.08984 0.0078-0.13281 0.01953-0.19531 0.07422-0.29687 0.29297-0.22266 0.49219l4.543 12.422c0.07422 0.19922 0.28906 0.29687 0.48828 0.22656 0.19531-0.07422 0.29688-0.29297 0.22266-0.49219l-4.543-12.422c-0.05469-0.15234-0.20312-0.24609-0.35547-0.24609z" fill="#c3a372"/>
<g transform="translate(-4.3242 -7.7773)" clip-path="url(#b)">
<path d="m6.5938 50.594c0-0.14844-0.027344-0.29688-0.085938-0.43359-0.054687-0.14062-0.14062-0.26562-0.24609-0.37109-0.10547-0.10937-0.23047-0.19141-0.36719-0.25-0.14062-0.05469-0.28516-0.08594-0.43359-0.08594-0.15234 0-0.29688 0.03125-0.4375 0.08594-0.13672 0.05859-0.26172 0.14063-0.36719 0.25-0.10547 0.10547-0.1875 0.23047-0.24609 0.37109-0.058594 0.13672-0.085937 0.28516-0.085937 0.43359 0 0.15234 0.027343 0.29688 0.085937 0.4375s0.14062 0.26172 0.24609 0.37109c0.10547 0.10547 0.23047 0.1875 0.36719 0.24609 0.14062 0.05859 0.28516 0.08594 0.4375 0.08594 0.14844 0 0.29297-0.02734 0.43359-0.08594 0.13672-0.058594 0.26172-0.14063 0.36719-0.24609 0.10547-0.10938 0.19141-0.23047 0.24609-0.37109 0.058594-0.14062 0.085938-0.28516 0.085938-0.4375z" fill="#c3a372"/>
</g>
<path d="m110.82 6.8164c0-0.15234-0.0273-0.29688-0.0859-0.4375s-0.14062-0.26172-0.24609-0.37109c-0.10547-0.10547-0.23047-0.1875-0.36719-0.24609-0.14062-0.05859-0.28515-0.08594-0.4375-0.08594-0.14843 0-0.29297 0.02734-0.43359 0.08594-0.13672 0.05859-0.26172 0.14063-0.36719 0.24609-0.10547 0.10938-0.1875 0.23047-0.24609 0.37109-0.0586 0.14062-0.0859 0.28516-0.0859 0.4375s0.0273 0.29688 0.0859 0.4375 0.14062 0.26172 0.24609 0.36719c0.10547 0.10937 0.23047 0.19141 0.36719 0.25 0.14062 0.05859 0.28516 0.08594 0.43359 0.08594 0.15235 0 0.29688-0.02734 0.4375-0.08594 0.13672-0.05859 0.26172-0.14063 0.36719-0.25 0.10547-0.10547 0.1875-0.22656 0.24609-0.36719 0.0586-0.14062 0.0859-0.28516 0.0859-0.4375z" fill="#c3a372"/>
<path d="m8.0781 28.621c0-0.15234-0.03125-0.29688-0.08594-0.4375-0.05859-0.14063-0.14062-0.26172-0.24609-0.37109-0.10937-0.10547-0.23047-0.1875-0.37109-0.24609-0.13672-0.05859-0.28125-0.08594-0.43359-0.08594s-0.29688 0.02734-0.43359 0.08594c-0.14062 0.05859-0.26172 0.14062-0.37109 0.24609-0.10547 0.10938-0.1875 0.23047-0.24609 0.37109-0.05469 0.14062-0.08594 0.28516-0.08594 0.4375 0 0.14844 0.03125 0.29687 0.08594 0.43359 0.05859 0.14062 0.14062 0.26562 0.24609 0.37109 0.10937 0.10938 0.23047 0.19141 0.37109 0.25 0.13672 0.05469 0.28125 0.08594 0.43359 0.08594s0.29688-0.03125 0.43359-0.08594c0.14062-0.05859 0.26172-0.14062 0.37109-0.25 0.10547-0.10547 0.1875-0.23047 0.24609-0.37109 0.05469-0.13672 0.08594-0.28516 0.08594-0.43359z" fill="#c3a372"/>
<g transform="translate(-4.3242 -7.7773)" clip-path="url(#a)">
<path d="m133.07 8.7617c0-0.15234-0.0312-0.29688-0.0898-0.4375-0.0547-0.13672-0.13672-0.26172-0.2461-0.36719-0.10546-0.10938-0.22656-0.19141-0.36718-0.25-0.14063-0.054687-0.28516-0.085937-0.4336-0.085937-0.15234 0-0.29687 0.03125-0.43359 0.085937-0.14063 0.058594-0.26563 0.14062-0.37109 0.25-0.10547 0.10547-0.1875 0.23047-0.2461 0.36719-0.0586 0.14062-0.0859 0.28516-0.0859 0.4375 0 0.15234 0.0273 0.29688 0.0859 0.4375s0.14063 0.26172 0.2461 0.37109c0.10546 0.10547 0.23046 0.1875 0.37109 0.24609 0.13672 0.058594 0.28125 0.085938 0.43359 0.085938 0.14844 0 0.29297-0.027344 0.4336-0.085938 0.14062-0.058594 0.26172-0.14062 0.36718-0.24609 0.10938-0.10937 0.19141-0.23047 0.2461-0.37109 0.0586-0.14062 0.0898-0.28516 0.0898-0.4375z" fill="#c3a372"/>
</g>
<path d="m898.78 0.62766h-126.47c-0.21093 0-0.3789 0.16797-0.3789 0.37891 0 0.21094 0.16797 0.38281 0.3789 0.38281h126.09v41.449c0 0.21094 0.16797 0.38281 0.37891 0.38281s0.37891-0.17187 0.37891-0.38281v-41.832c0-0.21094-0.16797-0.37891-0.37891-0.37891z" fill="#c3a372"/>
<path d="m893.36 6.4597h-102.89c-0.21094 0-0.37891 0.16797-0.37891 0.37891s0.16797 0.37891 0.37891 0.37891h102.13v21.344c0 0.21094 0.16796 0.37891 0.3789 0.37891 0.20703 0 0.37891-0.16797 0.37891-0.37891z" fill="#c3a372"/>
<path d="m880.35 12.796h-76.992c-0.21093 0-0.3789 0.17188-0.3789 0.38281 0 0.20703 0.16797 0.37891 0.3789 0.37891h76.992c0.21094 0 0.37891-0.17188 0.37891-0.37891 0-0.21094-0.16797-0.38281-0.37891-0.38281z" fill="#c3a372"/>
<path d="m898.78 0.62766c-0.0977 0-0.19922 0.039063-0.27344 0.11719l-19.941 20.789c-0.14844 0.15234-0.14063 0.39063 8e-3 0.53516 0.15234 0.14453 0.39453 0.14453 0.53515-0.0078l19.945-20.789c0.14453-0.15234 0.14062-0.39453-0.0117-0.53906-0.0742-0.070312-0.16797-0.10547-0.26172-0.10547z" fill="#c3a372"/>
<path d="m892.98 6.4597c-0.0586 0-0.11719 0.01172-0.17187 0.03906l-12.621 6.3398c-0.1875 0.09375-0.26172 0.32031-0.16797 0.50781 0.0937 0.1875 0.32032 0.26563 0.50782 0.17188l12.621-6.3398c0.1875-0.09375 0.26172-0.32031 0.16797-0.51172-0.0664-0.13281-0.19922-0.20703-0.33594-0.20703z" fill="#c3a372"/>
<path d="m790.74 6.4597c-0.13671 0-0.26953 0.07422-0.33593 0.20703-0.0937 0.19141-0.0195 0.41797 0.16797 0.51172l12.621 6.3398c0.1875 0.09375 0.41406 0.01562 0.50781-0.17188 0.0937-0.1875 0.0195-0.41406-0.16797-0.50781l-12.621-6.3398c-0.0586-0.02734-0.11328-0.03906-0.17188-0.03906z" fill="#c3a372"/>
<path d="m892.98 6.4597c-0.15625 0-0.30078 0.09375-0.35937 0.24609l-4.543 12.422c-0.0742 0.19922 0.0273 0.41797 0.22656 0.49219 0.19531 0.07031 0.41406-0.02734 0.48438-0.22656l4.5469-12.422c0.0703-0.19922-0.0273-0.41797-0.22656-0.49219-0.043-0.01172-0.0859-0.01953-0.12891-0.019531z" fill="#c3a372"/>
<g transform="translate(611.35 -7.7552)" clip-path="url(#c)">
<path d="m288.57 50.594c0-0.14844-0.0312-0.29688-0.0859-0.43359-0.0586-0.14062-0.14062-0.26562-0.24609-0.37109-0.10938-0.10937-0.23047-0.19141-0.3711-0.25-0.13672-0.05469-0.28125-0.08594-0.43359-0.08594s-0.29688 0.03125-0.43359 0.08594c-0.14063 0.05859-0.26172 0.14063-0.3711 0.25-0.10547 0.10547-0.1875 0.23047-0.24609 0.37109-0.0547 0.13672-0.0859 0.28516-0.0859 0.43359 0 0.15234 0.0312 0.29688 0.0859 0.4375 0.0586 0.14062 0.14062 0.26172 0.24609 0.37109 0.10938 0.10547 0.23047 0.1875 0.3711 0.24609 0.13671 0.05859 0.28125 0.08594 0.43359 0.08594s0.29687-0.02734 0.43359-0.08594c0.14063-0.05859 0.26172-0.14063 0.3711-0.24609 0.10547-0.10938 0.1875-0.23047 0.24609-0.37109 0.0547-0.14062 0.0859-0.28516 0.0859-0.4375z" fill="#c3a372"/>
</g>
<path d="m791.37 6.8386c0-0.15234-0.0273-0.29688-0.0859-0.4375s-0.14063-0.26172-0.24609-0.37109c-0.10938-0.10547-0.23047-0.1875-0.3711-0.24609-0.13672-0.05859-0.28125-0.08594-0.43359-0.08594-0.14844 0-0.29688 0.02734-0.4336 0.08594-0.14062 0.05859-0.26171 0.14063-0.37109 0.24609-0.10547 0.10938-0.1875 0.23047-0.24609 0.37109-0.0547 0.14062-0.0859 0.28516-0.0859 0.4375s0.0312 0.29688 0.0859 0.4375c0.0586 0.14062 0.14062 0.26172 0.24609 0.36719 0.10938 0.10937 0.23047 0.19141 0.37109 0.25 0.13672 0.05859 0.28516 0.08594 0.4336 0.08594 0.15234 0 0.29687-0.02734 0.43359-0.08594 0.14063-0.05859 0.26172-0.14063 0.3711-0.25 0.10546-0.10547 0.1875-0.22656 0.24609-0.36719 0.0586-0.14062 0.0859-0.28516 0.0859-0.4375z" fill="#c3a372"/>
<path d="m894.11 28.643c0-0.15234-0.0273-0.29688-0.0859-0.4375-0.0586-0.14063-0.14063-0.26172-0.2461-0.37109-0.10547-0.10547-0.23047-0.1875-0.36718-0.24609-0.14063-0.05859-0.28516-0.08594-0.4336-0.08594-0.15234 0-0.29687 0.02734-0.4375 0.08594-0.13672 0.05859-0.26172 0.14062-0.36719 0.24609-0.10546 0.10938-0.1875 0.23047-0.24609 0.37109-0.0586 0.14062-0.0859 0.28516-0.0859 0.4375 0 0.14844 0.0274 0.29687 0.0859 0.43359 0.0586 0.14062 0.14063 0.26562 0.24609 0.37109 0.10547 0.10938 0.23047 0.19141 0.36719 0.25 0.14063 0.05469 0.28516 0.08594 0.4375 0.08594 0.14844 0 0.29297-0.03125 0.4336-0.08594 0.13671-0.05859 0.26171-0.14062 0.36718-0.25 0.10547-0.10547 0.1875-0.23047 0.2461-0.37109 0.0586-0.13672 0.0859-0.28516 0.0859-0.43359z" fill="#c3a372"/>
<g transform="translate(611.35 -7.7552)" clip-path="url(#d)">
<path d="m162.1 8.7617c0-0.15234-0.0312-0.29688-0.0898-0.4375-0.0547-0.13672-0.13672-0.26172-0.2461-0.36719-0.10546-0.10938-0.22656-0.19141-0.36718-0.25-0.14063-0.054687-0.28516-0.085937-0.4336-0.085937-0.15234 0-0.29687 0.03125-0.4375 0.085937-0.13672 0.058594-0.26172 0.14062-0.36718 0.25-0.10547 0.10547-0.1875 0.23047-0.2461 0.36719-0.0586 0.14062-0.0859 0.28516-0.0859 0.4375 0 0.15234 0.0273 0.29688 0.0859 0.4375s0.14063 0.26172 0.2461 0.37109c0.10546 0.10547 0.23046 0.1875 0.36718 0.24609 0.14063 0.058594 0.28516 0.085938 0.4375 0.085938 0.14844 0 0.29297-0.027344 0.4336-0.085938 0.14062-0.058594 0.26172-0.14062 0.36718-0.24609 0.10938-0.10937 0.19141-0.23047 0.2461-0.37109 0.0586-0.14062 0.0898-0.28516 0.0898-0.4375z" fill="#c3a372"/>
</g>
</svg>
