<?xml version="1.0" encoding="UTF-8"?>
<svg width="265.98" height="136.71" preserveAspectRatio="xMidYMid" version="1.0" viewBox="0 0 199.48 102.54" xmlns="http://www.w3.org/2000/svg" zoomAndPan="magnify">
<defs>
<clipPath id="c">
<path d="m145 7.6914h3v85.309h-3z"/>
</clipPath>
<clipPath id="f">
<path d="m55 108h74v2.4414h-74z"/>
</clipPath>
<clipPath id="b">
<path d="m164 108h72v2.4414h-72z"/>
</clipPath>
<clipPath id="d">
<path d="m46.363 88h83.637v19h-83.637z"/>
</clipPath>
<clipPath id="e">
<path d="m163 88h82.863v19h-82.863z"/>
</clipPath>
<clipPath id="a">
<path d="m126 89h41v21.441h-41z"/>
</clipPath>
</defs>
<g transform="translate(-46.363 -7.7852)" clip-path="url(#c)">
<path d="m145.48 7.7891 1.2461-0.00391 0.33985 84.258-1.2461 0.0039z" fill="#c3a372"/>
</g>
<path d="m70.441 32.602 1.1484-0.48047 22.305 53.246-1.1484 0.48438z" fill="#c3a372"/>
<path d="m51.418 54.391 0.87891-0.88672 35.758 35.477-0.87891 0.88672z" fill="#c3a372"/>
<path d="m33.344 75.113 0.47266-1.1523 50.215 20.562-0.47266 1.1562z" fill="#c3a372"/>
<g transform="translate(-46.363 -7.7852)" clip-path="url(#f)">
<path d="m55.492 109.07 73.297-0.29297 8e-3 1.2461-73.297 0.29297z" fill="#c3a372"/>
</g>
<g transform="translate(-46.363 -7.7852)" clip-path="url(#b)">
<path d="m164.14 109.05 71.801-0.27735 4e-3 1.2461-71.801 0.27734z" fill="#c3a372"/>
</g>
<path d="m116.23 94.676 49.223-20.609 0.48047 1.1484-49.223 20.613z" fill="#c3a372"/>
<path d="m112.18 89.027 35.059-35.32 0.88671 0.87891-35.059 35.316z" fill="#c3a372"/>
<path d="m106.28 85.367 21.762-53.145 1.1562 0.47266-21.766 53.145z" fill="#c3a372"/>
<path d="m79.312 2.082 1.2227-0.25 16.781 82.637-1.2227 0.24609z" fill="#c3a372"/>
<path d="m42.793 17.477 1.0312-0.69531 47.168 69.988-1.0352 0.69531z" fill="#c3a372"/>
<path d="m14.941 45.676 0.6875-1.0391 70.359 46.609-0.6875 1.0391z" fill="#c3a372"/>
<g transform="translate(-46.363 -7.7852)" clip-path="url(#d)">
<path d="m46.359 90.168 0.23828-1.2227 82.766 16.117-0.23828 1.2227z" fill="#c3a372"/>
</g>
<g transform="translate(-46.363 -7.7852)" clip-path="url(#e)">
<path d="m163.67 105.6 81.926-16.656 0.25 1.2227-81.926 16.656z" fill="#c3a372"/>
</g>
<path d="m114.36 91.461 69.496-46.809 0.69531 1.0312-69.496 46.812z" fill="#c3a372"/>
<path d="m109.25 86.805 46.406-70.012 1.0391 0.6875-46.406 70.012z" fill="#c3a372"/>
<path d="m102.86 84.469 16.074-82.629 1.2226 0.23828-16.074 82.629z" fill="#c3a372"/>
<g transform="translate(-46.363 -7.7852)" clip-path="url(#a)">
<path d="m161.72 110.3v-0.625c-8e-3 -1.0078-0.10938-2.0195-0.3086-2.9883-0.1875-0.92578-0.46484-1.8398-0.82422-2.7148-0.40234-0.98828-0.91797-1.9414-1.5195-2.8242-0.53125-0.78125-1.1367-1.5117-1.8008-2.1797-0.74609-0.74219-1.5664-1.4141-2.4531-1.9922-0.79688-0.52344-1.6445-0.97266-2.5274-1.3359-0.9375-0.39062-1.9219-0.68359-2.9219-0.875-0.95313-0.18359-1.9297-0.27734-2.9024-0.27734-1.0039 0-1.9844 0.09375-2.9414 0.28125-0.9961 0.19531-1.9766 0.49219-2.9102 0.88281-0.85156 0.35156-1.6797 0.78906-2.457 1.293-0.88672 0.57813-1.7188 1.2539-2.4688 1.9961-2.9297 2.9258-4.4844 6.6016-4.4844 10.625v0.62109h-4.8594v-0.62109c0-5.3438 2.0469-10.211 5.9141-14.066 0.98438-0.98047 2.0781-1.8633 3.25-2.625 1.0195-0.66406 2.1133-1.2422 3.2383-1.707 1.2383-0.51562 2.5312-0.90625 3.8477-1.1602 1.2578-0.24609 2.5469-0.37109 3.832-0.375 1.3125 0 2.5938 0.125 3.8516 0.36719 1.3203 0.25391 2.6211 0.64453 3.8633 1.1602 1.1562 0.47656 2.2812 1.0703 3.332 1.7617 1.1602 0.76172 2.2461 1.6445 3.2266 2.625 0.875 0.875 1.6758 1.8398 2.3711 2.8672 0.80078 1.1641 1.4727 2.418 2.0078 3.7227 0.47266 1.1602 0.83985 2.3672 1.0898 3.5859 0.26172 1.2891 0.39844 2.6133 0.40234 3.9375v0.625l-4.8516 0.0195zm-15.285-17.059c1.082 0 2.1367 0.09766 3.1641 0.29687 1.0859 0.20703 2.1484 0.52734 3.168 0.94922 0.94922 0.39453 1.8672 0.87891 2.7344 1.4453 0.95312 0.625 1.8476 1.3555 2.6484 2.1562 0.71875 0.71875 1.3711 1.5117 1.9492 2.3555 0.65235 0.95703 1.2031 1.9805 1.6445 3.0547 0.38672 0.94531 0.69141 1.9336 0.89453 2.9375 0.17188 0.85547 0.27735 1.7305 0.31641 2.6133l2.3633-8e-3c-0.0391-1.0352-0.16406-2.0664-0.36719-3.0742-0.23046-1.1445-0.57421-2.2734-1.0234-3.3633-0.5-1.2266-1.1328-2.4023-1.8789-3.4922-0.65625-0.96094-1.4062-1.8672-2.2266-2.6914-0.91797-0.91797-1.9375-1.7461-3.0312-2.4609-0.98438-0.64844-2.0352-1.2031-3.125-1.6562-1.1602-0.48047-2.3828-0.84766-3.6211-1.082-1.1797-0.23047-2.3828-0.34375-3.5859-0.34375-1.2383 0-2.4453 0.12109-3.625 0.35156-1.2344 0.23828-2.4492 0.60547-3.6055 1.0859-1.0586 0.44141-2.0781 0.97656-3.0391 1.6055-1.0977 0.71484-2.1211 1.543-3.0508 2.4648-3.4766 3.4648-5.3828 7.7969-5.5312 12.555h2.3633c0.15234-4.1172 1.8203-7.8672 4.8398-10.887 0.80859-0.80469 1.707-1.5312 2.668-2.1562 0.83984-0.54297 1.7305-1.0156 2.6562-1.3984 1.0156-0.42188 2.0742-0.73828 3.1562-0.95312 1.0352-0.19922 2.0938-0.30078 3.1484-0.30469z" fill="#c3a372"/>
</g>
<path d="m117.16 101.88c-4e-3 -1.125-0.1211-2.25-0.33985-3.3437-0.21093-1.0352-0.51953-2.0547-0.92187-3.0352-0.45313-1.1055-1.0274-2.1719-1.6992-3.1602-0.59375-0.86719-1.2734-1.6875-2.0156-2.4336-0.83203-0.83203-1.75-1.582-2.7383-2.2305-0.89062-0.58594-1.8398-1.0898-2.8242-1.4961-1.0508-0.4375-2.1523-0.76562-3.2734-0.98047-1.0664-0.20312-2.1602-0.3125-3.2461-0.3125-1.1172 0-2.2148 0.10938-3.2813 0.31641-1.1172 0.21484-2.2148 0.54687-3.2617 0.98437-0.95312 0.39453-1.8789 0.88281-2.7461 1.4492-0.99219 0.64453-1.918 1.3945-2.7578 2.2305-3.2812 3.2695-5.0156 7.3867-5.0156 11.906h-1.2461c0-4.8555 1.8633-9.2734 5.3789-12.785 0.89843-0.89453 1.8906-1.6992 2.9609-2.3945 0.9336-0.60547 1.9219-1.1289 2.9492-1.5547 1.125-0.46484 2.3008-0.82031 3.4961-1.0547 1.1484-0.22266 2.3242-0.33594 3.4961-0.33984h8e-3c1.1875 0 2.3594 0.11328 3.4961 0.33203 1.207 0.23438 2.3867 0.58594 3.5156 1.0547 1.0547 0.4375 2.0742 0.97656 3.0352 1.6055 1.0586 0.69141 2.0469 1.5 2.9375 2.3906 0.79687 0.80078 1.5234 1.6797 2.1602 2.6094 0.72657 1.0625 1.3359 2.2031 1.8242 3.3906 0.42969 1.0547 0.76172 2.1523 0.98828 3.2617 0.23438 1.1719 0.35938 2.3789 0.36328 3.5859h-1.2461z" fill="#c3a372"/>
</svg>
