<?xml version="1.0" encoding="UTF-8"?>
<svg width="312.48" height="155.8" preserveAspectRatio="xMidYMid" version="1.0" viewBox="0 0 234.36 116.85" xmlns="http://www.w3.org/2000/svg" zoomAndPan="magnify">
<defs>
<clipPath id="a">
<path d="m87.75 29.789h117v117h-117z"/>
</clipPath>
</defs>
<g transform="translate(-29.251 -29.789)" clip-path="url(#a)">
<path d="m187.48 46.848h-24.215l-17.121-17.125-17.113 17.113h-24.227v24.234l-17.109 17.113 17.109 17.121v24.215h24.227l17.113 17.121 17.121-17.121h24.215v-24.215l17.121-17.121-17.121-17.113zm-82.676 49.758-8.418-8.4219 8.418-8.4219zm0-17.754-9.3242 9.332 9.3242 9.3242v6.8945l-16.219-16.219 16.219-16.219zm63.07-26.492h-6.8906l-4.875-4.875h6.8945zm13.453 13.453v6.8945l-19.707-19.707h6.8945zm-11.91-12.812h11.91v11.91zm-0.90235 70.371h-6.8945l19.707-19.707v6.8906zm12.812-11.91v11.906h-11.91zm-20.609 11.906h-29.148l-20.613-20.609v-29.148l20.609-20.609h29.152l20.609 20.609v29.145zm-23.637 5.5117-4.875-4.8711h27.871l-4.8711 4.8711zm17.484 0.64453-8.4219 8.4219-8.4219-8.4258zm-43.609-18.969v-6.8945l19.707 19.707h-6.8906zm11.914 12.812h-11.914v-11.91zm0.90235-70.371h6.8906l-19.707 19.711v-6.8945zm-12.816 11.91v-11.906h11.91zm44.25-17.422 4.875 4.875h-27.875l4.875-4.875zm-17.484-0.64062 8.4219-8.418 8.4219 8.4219zm8.4219-16.219 16.219 16.223h-6.8945l-9.3242-9.3281-9.3281 9.3281h-6.8945zm-16.859 16.859h6.8906l-4.8711 4.875h-6.8945zm-23.84 0h22.945l-4.875 4.875h-13.195v13.188l-4.875 4.8828zm0 23.84 4.875-4.875v6.8945l-4.875 4.875zm0 7.7969 4.875-4.875v27.871l-4.875-4.875zm0 19.039 4.875 4.875v6.8789l-4.875-4.875zm0 30.73v-22.953l4.875 4.875v13.184h13.188l4.8828 4.8828zm18.965-4.875h6.8945l4.8711 4.875h-6.8906zm21.734 21.723-16.219-16.219h6.8906l9.3281 9.3281 9.3242-9.3281h6.8945zm16.859-16.859h-6.8945l4.875-4.8711h6.8906zm23.84 0h-22.949l4.875-4.8711h13.191v-13.191l4.8828-4.8789zm0-23.84-4.875 4.875v-6.8945l4.875-4.875zm0-7.7969-4.875 4.875v-27.871l4.875 4.875zm0-19.023-4.875-4.875v-6.8906l4.875 4.8711zm0-7.7969-4.875-4.875v-13.188h-13.188l-4.8867-4.875h22.949zm0.64062 9.3398 8.418 8.4219-8.4219 8.4219zm16.215 8.4219-16.219 16.219v-6.8945l9.3242-9.3242-9.3242-9.3242v-6.8945z" fill="#ffde59"/>
</g>
<path d="m178.85 58.125h53.055" fill="none" stroke="#03989e" stroke-width=".75247"/>
<path d="m233.98 58.125-1.1328-1.125-1.1289 1.125 1.1289 1.125z" fill="#03989e" stroke="#03989e" stroke-linejoin="round" stroke-width=".75247"/>
<path d="m2.4517 58.125h53.055" fill="none" stroke="#03989e" stroke-width=".75247"/>
<path d="m0.37745 58.125 1.1328-1.125 1.1289 1.125-1.1289 1.125z" fill="#03989e" stroke="#03989e" stroke-linejoin="round" stroke-width=".75247"/>
</svg>
