<?xml version="1.0" encoding="UTF-8"?>
<svg width="311.61" height="10.667" preserveAspectRatio="xMidYMid" version="1.0" viewBox="0 0 233.71 8" xmlns="http://www.w3.org/2000/svg" zoomAndPan="magnify">
<g transform="translate(-29.248 -99.84)">
<path transform="matrix(.74611 0 0 .75 206.7 101.34)" d="m-0.001038-5.7298e-4h72.15" fill="none" stroke="#ffde59"/>
<path transform="matrix(.74611 0 0 .75 262.96 101.34)" d="m-0.50255-5.7298e-4 -1.4973-1.5-1.5026 1.5 1.5026 1.5z" fill="#ffde59" stroke="#ffde59" stroke-linejoin="round"/>
<path transform="matrix(.74595 0 0 .75 29.25 101.34)" d="m3.2519-5.7298e-4h69.149" fill="none" stroke="#ffde59"/>
<path transform="matrix(.74595 0 0 .75 29.25 101.34)" d="m0.49748-5.7298e-4 1.5029-1.5 1.4977 1.5-1.4977 1.5z" fill="#ffde59" stroke="#ffde59" stroke-linejoin="round"/>
<path transform="matrix(.74476 0 0 .75 206.7 107.09)" d="m-0.0010399-5.9574e-4h60.427" fill="none" stroke="#03989e"/>
<path transform="matrix(.74476 0 0 .75 38.231 107.47)" d="m-0.0010438-5.8903e-4h60.427" fill="none" stroke="#03989e"/>
</g>
</svg>
